# xmcd
#
# Track frame offsets: 
#        150
#        20862
#        50113
#        70000
#        85287
#        91087
#        92571
#        109887
#        128288
#        142825
#        150384
#        171575
#        187925
#        208850
#
# Disc length: 2962 seconds
#
# Revision: 1
# Processed by: cddbd v1.5.2PL0 Copyright (c) Steve Scherf et al.
# Submitted via: ExactAudioCopy v1.0b3
#
DISCID=b60b900e
DTITLE=Marvin Gaye - I Want You
DYEAR=1976
DGENRE=Soul
TTITLE0=I Want You (Vocal)
TTITLE1=Come Live With Me Angel
TTITLE2=After The Dance (Instrumental)
TTITLE3=Feel All My Love Inside
TTITLE4=I Wanna Be Where You Are
TTITLE5=I Want You (Intro Jam)
TTITLE6=All The Way Around
TTITLE7=Since I Had You
TTITLE8=Soon I'll Be Loving You Again
TTITLE9=I Want You (Intro Jam)
TTITLE10=After The Dance (Vocal)
TTITLE11=I Want You (Vocal) (Promo-Only Version)
TTITLE12=I Want You (Instrumental)
TTITLE13=Strange Love (Feel All My Love Inside) (Instrumental)
EXTD=oldskoolmaster2000@yahoo.es
EXTT0=
EXTT1=
EXTT2=
EXTT3=
EXTT4=
EXTT5=
EXTT6=
EXTT7=
EXTT8=
EXTT9=
EXTT10=
EXTT11=
EXTT12=
EXTT13=
PLAYORDER=
